<svg width="18" height="24" viewBox="0 0 18 24" fill="none" xmlns="http://www.w3.org/2000/svg">
<path d="M17.4464 0H2.0423C0.908307 0 -0.00927734 0.917583 -0.00927734 2.05158V21.8186C-0.00927734 21.9051 -0.00927718 21.9917 0.0340051 22.035C0.250416 23.1257 1.25456 24 2.43184 24H17.1824C17.4897 24 17.7494 23.736 17.7494 23.433C17.7494 23.13 17.4897 22.866 17.1824 22.866C16.4423 22.866 15.8277 22.2557 15.8277 21.5156C15.8277 20.7755 16.438 20.1609 17.1824 20.1609H17.4421C17.7494 20.1609 18.0091 19.9012 18.0091 19.5939V0.566997C17.9658 0.259693 17.7451 0 17.4421 0H17.4464ZM3.26286 18.0227H16.9227V19.1134H3.26286V18.0227ZM16.8795 1.09071V16.932H3.26286V3.27214H13.6506C13.9579 3.27214 14.2176 3.00812 14.2176 2.70514C14.2176 2.40216 13.9579 2.13814 13.6506 2.13814H3.26286V1.04743H16.8795V1.09071ZM2.0423 1.09071H2.17215V19.1134C1.77828 19.1567 1.38441 19.2866 1.08144 19.5073V2.05158C1.08144 1.52786 1.51859 1.09071 2.0423 1.09071ZM15.1352 22.9093H2.43617C1.99902 22.9093 1.60948 22.6929 1.34546 22.3423H12.5166C12.8239 22.3423 13.0836 22.0826 13.0836 21.7753C13.0836 21.468 12.8239 21.2083 12.5166 21.2083H1.08144C1.21128 20.598 1.77828 20.1176 2.43184 20.1176H15.1309C14.5639 20.9919 14.5639 22.0826 15.1309 22.9093H15.1352Z" fill="#0D347E"/>
<path d="M12.7763 8.77326V7.5527C12.7763 7.2454 12.5166 6.9857 12.2093 6.9857H10.9888L10.1578 6.15901C9.94135 5.9426 9.59076 5.9426 9.37435 6.15901L8.54333 6.9857H7.32277C7.01547 6.9857 6.75578 7.24973 6.75578 7.5527V8.77326L5.97237 9.60428C5.75596 9.82069 5.75596 10.1713 5.97237 10.3877L6.79906 11.2187V12.4393C6.79906 12.7466 7.06308 13.0063 7.36606 13.0063H8.58661L9.41763 13.8373C9.63404 14.0537 9.98463 14.0537 10.201 13.8373L11.0321 13.0063H12.2526C12.5599 13.0063 12.8196 12.7422 12.8196 12.4393V11.2187L13.6463 10.3877C13.8627 10.1713 13.8627 9.82069 13.6463 9.60428L12.772 8.77326H12.7763ZM11.8588 10.6041C11.7722 10.6907 11.6856 10.8681 11.6856 10.998V11.8723H10.8113C10.6815 11.8723 10.5473 11.9155 10.4175 12.0454L9.80717 12.6557L9.19689 12.0454C9.11033 11.9588 8.93287 11.8723 8.80303 11.8723H7.92872V10.998C7.92872 10.8681 7.88544 10.7339 7.7556 10.6041L7.14532 9.99382L7.7556 9.38354C7.84216 9.29698 7.92872 9.11952 7.92872 8.98967V8.11537H8.80303C8.93287 8.11537 9.06272 8.07209 9.19689 7.94224L9.80717 7.33196L10.4175 7.94224C10.504 8.0288 10.6815 8.11537 10.8113 8.11537H11.6856V8.98967C11.6856 9.11952 11.7289 9.25369 11.8588 9.38354L12.469 9.99382L11.8588 10.6041Z" fill="#0D347E"/>
</svg>
