<svg width="26" height="24" viewBox="0 0 26 24" fill="none" xmlns="http://www.w3.org/2000/svg">
<g clip-path="url(#clip0_127_606)">
<path d="M23.3753 21.3297C23.3449 21.3185 22.6152 21.026 21.0741 20.9547C20.3825 20.933 19.6903 20.9688 19.0047 21.0616C19.0845 20.8583 19.1108 20.6384 19.0812 20.4223C19.0517 20.2063 18.9672 20.0011 18.8356 19.826L18.7254 19.6779C18.6644 19.6011 18.5756 19.5508 18.4777 19.5377C18.3798 19.5245 18.2806 19.5494 18.201 19.6072C18.1214 19.665 18.0678 19.7511 18.0514 19.8472C18.0351 19.9434 18.0574 20.042 18.1135 20.1222L18.2237 20.2704C18.2671 20.3283 18.2985 20.3941 18.3161 20.4641C18.3337 20.534 18.3371 20.6067 18.3262 20.6779C18.3152 20.7492 18.2901 20.8176 18.2523 20.8793C18.2145 20.9409 18.1648 20.9946 18.1059 21.0372L17.76 21.2885C17.7017 21.3318 17.6352 21.3631 17.5643 21.3805C17.4935 21.3979 17.4198 21.4011 17.3477 21.3897C17.2756 21.379 17.2064 21.3542 17.1441 21.3169C17.0818 21.2795 17.0276 21.2304 16.9847 21.1722L15.6298 19.361C15.5425 19.2443 15.5057 19.0983 15.5275 18.9548C15.5492 18.8114 15.6277 18.6824 15.7458 18.596L16.0935 18.3429C16.1516 18.2989 16.218 18.2668 16.2888 18.2485C16.3596 18.2301 16.4334 18.2259 16.5059 18.236C16.5779 18.246 16.6472 18.2703 16.7096 18.3073C16.772 18.3444 16.8261 18.3934 16.8688 18.4516L17.2109 18.9091C17.2707 18.9887 17.3601 19.0417 17.4595 19.0565C17.5588 19.0712 17.6601 19.0465 17.741 18.9879C17.7814 18.9587 17.8156 18.922 17.8415 18.8799C17.8675 18.8377 17.8847 18.7909 17.8923 18.7421C17.8999 18.6933 17.8977 18.6436 17.8857 18.5956C17.8738 18.5477 17.8524 18.5026 17.8228 18.4629L17.6327 18.206C17.6843 18.2151 17.7363 18.2214 17.7885 18.2247H17.9216C18.3276 18.2247 18.7207 18.084 19.0324 17.8272C19.344 17.5704 19.5544 17.2138 19.6268 16.8196C19.6992 16.4254 19.629 16.0187 19.4285 15.6703C19.228 15.3219 18.9099 15.0541 18.5297 14.9135C18.7794 14.7017 18.9628 14.4241 19.0584 14.1132C19.1541 13.8023 19.1579 13.4709 19.0696 13.1579C18.9813 12.8449 18.8044 12.5632 18.5597 12.3458C18.315 12.1284 18.0126 11.9843 17.6878 11.9304C17.7688 11.8815 17.8457 11.8263 17.9178 11.7654C18.0914 11.6198 18.2337 11.4415 18.3365 11.2409C18.4393 11.0403 18.5005 10.8215 18.5164 10.5972C18.5488 10.1454 18.3984 9.69929 18.0982 9.35663C17.7979 9.01398 17.3722 8.80271 16.9144 8.76911C16.865 8.76911 16.8156 8.76911 16.7662 8.76911C16.8933 8.55165 16.9693 8.3088 16.9885 8.05849C17.0134 7.75906 16.9579 7.45846 16.8278 7.18688C16.6976 6.9153 16.4973 6.6823 16.2469 6.51129C15.9966 6.34029 15.7051 6.2373 15.4016 6.21267C15.0982 6.18804 14.7935 6.24264 14.5182 6.37099C14.5182 6.34661 14.5182 6.32036 14.5182 6.29599C14.5428 5.95997 14.4664 5.62426 14.2984 5.33097C14.1303 5.03769 13.8783 4.79992 13.5738 4.64749C13.2693 4.49507 12.9259 4.43479 12.5868 4.47422C12.2478 4.51364 11.928 4.65102 11.6678 4.86911C11.5063 5.00552 11.3716 5.17015 11.2706 5.35474C11.2458 4.94584 11.0728 4.55937 10.7833 4.26578C10.4938 3.9722 10.107 3.79105 9.6934 3.75536C9.46627 3.73752 9.2378 3.76429 9.02122 3.83413C8.80464 3.90397 8.60424 4.01549 8.43162 4.16224C8.14777 4.39742 7.94904 4.71722 7.86534 5.07349C7.79684 4.84616 7.6812 4.63535 7.52577 4.45444C7.37035 4.27353 7.17852 4.12645 6.96245 4.02255C6.74638 3.91864 6.51079 3.86017 6.27061 3.85084C6.03043 3.84151 5.79091 3.88152 5.56723 3.96834C5.34355 4.05517 5.14059 4.1869 4.97123 4.3552C4.80187 4.52349 4.6698 4.72467 4.58339 4.94599C4.49698 5.1673 4.45812 5.40392 4.46928 5.64083C4.48043 5.87774 4.54135 6.10978 4.64819 6.32224C4.38056 6.25666 4.10088 6.25547 3.83269 6.31877C3.5645 6.38207 3.31565 6.50801 3.10707 6.68599C2.90184 6.85917 2.74051 7.07732 2.63599 7.32301C2.53147 7.5687 2.48665 7.8351 2.50512 8.10094C2.52358 8.36677 2.60482 8.62465 2.74234 8.85397C2.87985 9.08329 3.06984 9.27768 3.29709 9.42161C3.02088 9.50407 2.76991 9.65328 2.56696 9.8557C2.364 10.0581 2.21548 10.3073 2.13488 10.5807C2.05429 10.8542 2.04416 11.1431 2.10542 11.4213C2.16667 11.6996 2.29738 11.9583 2.48568 12.1741C2.63366 12.345 2.81445 12.4854 3.01763 12.5871C3.22081 12.6887 3.44237 12.7498 3.66955 12.7666H3.79116C3.59374 13.0095 3.46728 13.301 3.42542 13.6096C3.38356 13.9182 3.42789 14.2323 3.55364 14.5178C3.67938 14.8034 3.88176 15.0497 4.13895 15.2301C4.39614 15.4105 4.69837 15.5182 5.01304 15.5416H5.14796C5.54578 15.5426 5.9315 15.4066 6.23871 15.1572C6.21195 15.256 6.19477 15.3571 6.1874 15.4591C6.16927 15.6841 6.19653 15.9105 6.2676 16.1251C6.33867 16.3397 6.45215 16.5382 6.60146 16.7092C6.75078 16.8803 6.93297 17.0204 7.13752 17.1216C7.34206 17.2227 7.56489 17.2828 7.79313 17.2985H7.92615C8.23 17.2988 8.52845 17.2192 8.79077 17.0679C8.79077 17.1016 8.78127 17.1372 8.77747 17.1729C8.7429 17.6253 8.8918 18.0729 9.19147 18.4171C9.49114 18.7613 9.91705 18.974 10.3756 19.0085H10.5086C10.8535 19.0095 11.1907 18.9075 11.4759 18.716C11.4423 19.1677 11.5918 19.614 11.8914 19.9571C12.191 20.3001 12.6163 20.5119 13.074 20.546H13.207C13.5621 20.5458 13.9086 20.4377 14.1992 20.2364C14.4899 20.0351 14.7108 19.7504 14.8317 19.421C14.8749 19.555 14.939 19.6815 15.0218 19.796L16.3728 21.611C16.4746 21.7485 16.6032 21.8646 16.751 21.9525C16.8988 22.0404 17.0629 22.0983 17.2337 22.1229C17.2965 22.1329 17.36 22.1379 17.4237 22.1379C17.5372 22.1377 17.6503 22.1232 17.76 22.0947C17.8314 22.8832 17.9797 23.6631 18.2028 24.4235C18.6323 25.886 19.0959 26.5122 19.1149 26.5385C19.1759 26.6152 19.2647 26.6655 19.3626 26.6787C19.4605 26.6919 19.5598 26.6669 19.6393 26.6092C19.7189 26.5514 19.7725 26.4653 19.7889 26.3691C19.8052 26.273 19.783 26.1743 19.7268 26.0941C19.7268 26.0941 19.3202 25.5316 18.9325 24.2191C18.8888 24.0729 18.8508 23.9285 18.8147 23.786C18.9135 23.9735 19.0218 24.161 19.1377 24.3485C19.9397 25.661 20.5515 26.1391 20.5781 26.1579C20.6565 26.2188 20.7561 26.2469 20.8553 26.236C20.9545 26.2251 21.0454 26.1762 21.1083 26.0997C21.1715 26.0224 21.201 25.9234 21.1903 25.8247C21.1796 25.7259 21.1296 25.6353 21.0513 25.5729C21.0513 25.5729 20.5268 25.1454 19.8237 24.0166C20.8195 25.181 21.4998 25.5672 21.534 25.5841C21.6214 25.6338 21.7253 25.6473 21.8228 25.6214C21.9202 25.5956 22.0033 25.5326 22.0537 25.4463C22.1041 25.36 22.1177 25.2575 22.0915 25.1614C22.0653 25.0652 22.0015 24.9832 21.914 24.9335C21.914 24.9335 21.3078 24.5791 20.4128 23.5329C20.2494 23.3454 20.0993 23.1579 19.9625 22.9704C20.2076 23.066 20.466 23.1766 20.7226 23.3041C21.9672 23.9116 22.4556 24.401 22.4594 24.4047C22.495 24.4415 22.5377 24.4708 22.5851 24.4908C22.6324 24.5108 22.6834 24.521 22.735 24.521C22.809 24.5207 22.8814 24.4991 22.9432 24.4588C23.0049 24.4185 23.0534 24.3613 23.0827 24.2942C23.112 24.2271 23.1207 24.153 23.1079 24.081C23.0951 24.009 23.0612 23.9423 23.0105 23.8891C22.9877 23.8647 22.4404 23.306 21.0589 22.6329C22.3397 23.0341 22.8794 23.4297 22.8832 23.4335C22.9498 23.4836 23.0313 23.5106 23.115 23.5104C23.1941 23.5101 23.2712 23.4855 23.3355 23.44C23.3998 23.3944 23.448 23.3302 23.4736 23.2563C23.4991 23.1824 23.5006 23.1025 23.4779 23.0277C23.4552 22.9529 23.4094 22.887 23.3468 22.8391C23.3221 22.8204 22.695 22.3516 21.2223 21.9016C21.0095 21.836 20.7986 21.7779 20.5971 21.7272H21.0456C22.4328 21.7816 23.0808 22.0347 23.0865 22.0366C23.1324 22.0549 23.1814 22.0645 23.2309 22.0647C23.327 22.0774 23.4243 22.0533 23.503 21.9975C23.5816 21.9416 23.6357 21.8583 23.6542 21.7644C23.6726 21.6705 23.654 21.5732 23.6022 21.4925C23.5504 21.4117 23.4692 21.3535 23.3753 21.3297ZM18.657 15.8922C18.741 15.9877 18.805 16.0987 18.8451 16.2187C18.8852 16.3388 18.9007 16.4656 18.8907 16.5916C18.8823 16.7185 18.8484 16.8424 18.7911 16.9562C18.7337 17.0701 18.6541 17.1715 18.5566 17.2547C18.4592 17.3379 18.3461 17.4012 18.2237 17.4409C18.1013 17.4806 17.9721 17.4959 17.8437 17.486C17.5901 17.4707 17.3527 17.3582 17.1822 17.1725C17.0116 16.9867 16.9214 16.7426 16.9308 16.4921C16.9402 16.2417 17.0486 16.0048 17.2326 15.8321C17.4167 15.6594 17.6619 15.5646 17.9159 15.5679H17.99C18.1174 15.5769 18.2418 15.6107 18.3559 15.6673C18.4701 15.724 18.5717 15.8023 18.6551 15.8979L18.657 15.8922ZM18.1382 12.9972C18.2429 13.1168 18.3161 13.26 18.3514 13.4141C18.3867 13.5683 18.3829 13.7286 18.3404 13.881C18.298 14.0334 18.2181 14.1731 18.108 14.2877C17.9978 14.4024 17.8607 14.4886 17.7087 14.5385C17.5568 14.5885 17.3948 14.6008 17.2369 14.5742C17.079 14.5477 16.9302 14.4832 16.8036 14.3865C16.6769 14.2897 16.5764 14.1637 16.5109 14.0195C16.4454 13.8753 16.4169 13.7174 16.428 13.5597C16.4466 13.3185 16.5567 13.093 16.7363 12.9283C16.9159 12.7636 17.1519 12.6717 17.3971 12.671H17.4731C17.7295 12.6899 17.9682 12.807 18.1382 12.9972ZM16.7871 9.51349H16.8612C17.0191 9.52755 17.1711 9.57946 17.304 9.6647C17.4369 9.74993 17.5466 9.86592 17.6238 10.0026C17.7009 10.1392 17.743 10.2924 17.7464 10.4487C17.7499 10.6051 17.7146 10.7599 17.6435 10.8997C17.5725 11.0396 17.468 11.1601 17.3389 11.251C17.2099 11.3418 17.0604 11.4002 16.9033 11.4211C16.7462 11.4419 16.5863 11.4245 16.4376 11.3705C16.2888 11.3164 16.1557 11.2274 16.0498 11.111C15.966 11.0155 15.9023 10.9044 15.8625 10.7843C15.8227 10.6642 15.8076 10.5375 15.818 10.4116C15.8343 10.1687 15.9434 9.94091 16.1233 9.77423C16.3031 9.60756 16.5404 9.51438 16.7871 9.51349ZM14.6341 7.19599C14.8097 7.0457 15.0344 6.96313 15.2669 6.96349H15.341C15.5984 6.98303 15.8376 7.10235 16.0061 7.29536C16.1319 7.43908 16.2116 7.61637 16.2353 7.80482C16.2589 7.99326 16.2254 8.1844 16.139 8.35405C16.0525 8.52369 15.917 8.66424 15.7496 8.7579C15.5822 8.85156 15.3904 8.89413 15.1985 8.88023C15.0066 8.86633 14.8231 8.79658 14.6714 8.6798C14.5196 8.56302 14.4064 8.40446 14.346 8.22418C14.2856 8.04389 14.2807 7.84998 14.332 7.66696C14.3833 7.48394 14.4884 7.32004 14.6341 7.19599ZM12.1828 5.44099C12.3285 5.31909 12.5073 5.24222 12.697 5.21996C12.8867 5.19771 13.0789 5.23105 13.2495 5.31582C13.4201 5.4006 13.5617 5.53307 13.6565 5.6967C13.7514 5.86033 13.7953 6.04789 13.7828 6.23599C13.7631 6.4901 13.642 6.7261 13.446 6.89207C13.25 7.05804 12.9952 7.14038 12.7376 7.12099C12.4801 7.10159 12.2409 6.98205 12.0727 6.78865C11.9045 6.59526 11.821 6.34385 11.8407 6.08974C11.8506 5.96504 11.8854 5.84351 11.9431 5.73216C12.0008 5.62081 12.0803 5.52185 12.1771 5.44099H12.1828ZM8.91999 4.73599C9.09559 4.5857 9.32033 4.50313 9.55278 4.50349H9.62879C9.75656 4.51309 9.88116 4.54743 9.99548 4.60455C10.1098 4.66166 10.2116 4.74044 10.2951 4.83637C10.3785 4.93231 10.442 5.04352 10.4819 5.16367C10.5218 5.28382 10.5374 5.41054 10.5276 5.53661C10.5179 5.66268 10.4831 5.78563 10.4252 5.89842C10.3673 6.01122 10.2875 6.11166 10.1902 6.19402C10.093 6.27637 9.98031 6.33902 9.85854 6.3784C9.73677 6.41777 9.60834 6.43309 9.48057 6.42349C9.28742 6.41124 9.10236 6.34243 8.94905 6.22585C8.79575 6.10927 8.68117 5.95022 8.61996 5.76904C8.55875 5.58787 8.55371 5.3928 8.60546 5.20877C8.65721 5.02475 8.76342 4.86014 8.91049 4.73599H8.91999ZM5.56982 4.83911C5.74541 4.68883 5.97016 4.60625 6.20261 4.60661H6.27292C6.46581 4.61992 6.65034 4.68954 6.80304 4.8066C6.95573 4.92367 7.06969 5.0829 7.13042 5.26404C7.19116 5.44519 7.19592 5.64006 7.14411 5.82388C7.09229 6.00771 6.98624 6.17217 6.83944 6.29636C6.69264 6.42055 6.51173 6.49886 6.3197 6.52133C6.12768 6.5438 5.93322 6.50941 5.76106 6.42253C5.58889 6.33566 5.4468 6.20023 5.35286 6.03346C5.25891 5.86669 5.21735 5.67612 5.23347 5.48599C5.24357 5.36162 5.27849 5.24044 5.33621 5.12943C5.39393 5.01842 5.47332 4.91975 5.56982 4.83911ZM3.26479 7.91036C3.28343 7.66911 3.39354 7.44364 3.57315 7.27892C3.75277 7.1142 3.98871 7.02233 4.23393 7.02161H4.30994C4.56702 7.04127 4.80574 7.16062 4.97384 7.35354C5.14194 7.54647 5.22573 7.79725 5.20686 8.05099C5.19788 8.17696 5.16351 8.29989 5.10575 8.41258C5.048 8.52527 4.96802 8.62544 4.87052 8.70724C4.72461 8.83148 4.54459 8.91017 4.3533 8.93333C4.162 8.95648 3.96805 8.92305 3.79604 8.83729C3.62402 8.75152 3.4817 8.61728 3.38712 8.45158C3.29254 8.28589 3.24996 8.09622 3.26479 7.90661V7.91036ZM3.72655 12.0185C3.4772 11.9968 3.24584 11.8814 3.08041 11.696C2.91499 11.5106 2.82816 11.2696 2.83793 11.0228C2.84771 10.776 2.95332 10.5423 3.1329 10.3703C3.31248 10.1982 3.55226 10.1009 3.80257 10.0985H3.87668C4.13421 10.1176 4.37349 10.2369 4.54187 10.4302C4.71026 10.6234 4.79396 10.8747 4.77455 11.1288C4.75515 11.3829 4.63424 11.619 4.43841 11.7852C4.24259 11.9513 3.98789 12.0339 3.73035 12.0147L3.72655 12.0185ZM5.77885 14.5685C5.65998 14.6695 5.51812 14.7406 5.36538 14.7758C5.21264 14.811 5.05353 14.8093 4.90162 14.7707C4.7497 14.7321 4.6095 14.6579 4.49294 14.5543C4.37638 14.4508 4.28693 14.3209 4.23221 14.1759C4.17749 14.0308 4.15913 13.8749 4.17868 13.7213C4.19824 13.5677 4.25513 13.4211 4.34452 13.2939C4.4339 13.1667 4.55313 13.0628 4.69203 12.9909C4.83093 12.919 4.9854 12.8813 5.14225 12.881H5.21827C5.41015 12.8958 5.59331 12.9663 5.74465 13.0836C5.89599 13.201 6.00874 13.3599 6.06869 13.5403C6.12864 13.7208 6.13311 13.9147 6.08153 14.0977C6.02995 14.2807 5.92463 14.4445 5.77885 14.5685ZM8.55324 16.3235C8.43431 16.4245 8.29237 16.4957 8.13954 16.5309C7.98671 16.5661 7.82752 16.5643 7.67555 16.5256C7.52358 16.4869 7.38334 16.4126 7.2668 16.3089C7.15026 16.2052 7.06087 16.0752 7.00627 15.93C6.95167 15.7848 6.93347 15.6288 6.95322 15.4751C6.97298 15.3215 7.0301 15.1749 7.11972 15.0478C7.20934 14.9207 7.3288 14.8168 7.4679 14.7451C7.607 14.6734 7.76161 14.636 7.91855 14.636H7.98316C8.11072 14.6455 8.23513 14.6797 8.34928 14.7367C8.46342 14.7937 8.56506 14.8723 8.64837 14.9681C8.73168 15.0639 8.79503 15.1749 8.83479 15.2949C8.87455 15.4149 8.88994 15.5414 8.88009 15.6672C8.87231 15.7925 8.83941 15.915 8.78331 16.0277C8.7272 16.1403 8.649 16.2409 8.55324 16.3235ZM11.1338 18.0485C11.0149 18.1506 10.8727 18.2227 10.7194 18.2586C10.5661 18.2946 10.4062 18.2934 10.2535 18.255C10.1007 18.2167 9.95972 18.1424 9.84248 18.0384C9.72524 17.9345 9.63527 17.8041 9.5803 17.6584C9.52532 17.5127 9.50697 17.356 9.52682 17.2017C9.54668 17.0474 9.60413 16.9002 9.69428 16.7727C9.78442 16.6451 9.90456 16.541 10.0444 16.4693C10.1842 16.3976 10.3396 16.3605 10.4972 16.361H10.5732C10.7651 16.3758 10.9483 16.4463 11.0996 16.5636C11.251 16.681 11.3637 16.8399 11.4237 17.0203C11.4836 17.2008 11.4881 17.3947 11.4365 17.5777C11.3849 17.7607 11.2796 17.9245 11.1338 18.0485ZM13.8303 19.5879C13.7336 19.6703 13.6213 19.7331 13.4999 19.7727C13.3785 19.8122 13.2505 19.8278 13.123 19.8184C12.9955 19.8089 12.8712 19.7748 12.7571 19.7179C12.6431 19.6609 12.5415 19.5824 12.4583 19.4866C12.3362 19.3474 12.2573 19.1765 12.2309 18.9942C12.2045 18.8119 12.2318 18.6261 12.3095 18.4587C12.3872 18.2913 12.5121 18.1495 12.6692 18.0502C12.8263 17.9509 13.009 17.8982 13.1956 17.8985H13.2697C13.4629 17.9107 13.6479 17.9795 13.8012 18.0961C13.9545 18.2127 14.0691 18.3718 14.1303 18.5529C14.1915 18.7341 14.1966 18.9292 14.1448 19.1132C14.0931 19.2972 13.9869 19.4618 13.8398 19.586L13.8303 19.5879ZM14.8868 18.4872C14.8266 18.2095 14.6958 17.9514 14.5068 17.7372C14.2302 17.4201 13.8453 17.214 13.4251 17.1581C13.0048 17.1021 12.5784 17.2001 12.2265 17.4335C12.2487 17.1237 12.1852 16.8138 12.0426 16.5369C11.9 16.26 11.6838 16.0266 11.4171 15.8617C11.1504 15.6968 10.8433 15.6066 10.5286 15.6008C10.2139 15.5949 9.90351 15.6736 9.63069 15.8285C9.63647 15.7944 9.64028 15.7599 9.64209 15.7254C9.66817 15.3923 9.59466 15.0589 9.43068 14.7666C9.2667 14.4743 9.01944 14.2359 8.71951 14.0808C8.41957 13.9257 8.08014 13.8609 7.74323 13.8942C7.40632 13.9276 7.08672 14.0577 6.82399 14.2685C6.84921 14.1701 6.86575 14.0697 6.8734 13.9685C6.90798 13.516 6.75907 13.0685 6.4594 12.7243C6.15973 12.3801 5.73382 12.1674 5.27527 12.1329C5.23473 12.1329 5.19483 12.1329 5.15556 12.1329C5.30673 11.9455 5.41639 11.729 5.47744 11.4972C5.5385 11.2655 5.5496 11.0236 5.51002 10.7874C5.47044 10.5511 5.38107 10.3257 5.24767 10.1256C5.11427 9.92557 4.93983 9.75536 4.7356 9.62599C4.96806 9.55865 5.18319 9.44293 5.36649 9.28661C5.65908 9.03924 5.85977 8.70271 5.93686 8.33021C6.01395 7.95771 5.96303 7.57049 5.79215 7.22974C5.88472 7.25079 5.97871 7.2652 6.07339 7.27286H6.20641C6.5981 7.27148 6.97785 7.13963 7.28412 6.89869C7.59039 6.65775 7.80523 6.32183 7.89385 5.94536C7.96241 6.17556 8.08036 6.3885 8.23969 6.56974C8.38603 6.74343 8.56622 6.88636 8.76958 6.99007C8.97294 7.09378 9.19532 7.15615 9.42356 7.17349H9.55658C9.86873 7.17183 10.1747 7.08719 10.4422 6.92848C10.7097 6.76977 10.9289 6.54286 11.0768 6.27161C11.1018 6.6848 11.2776 7.07506 11.5718 7.37015C11.866 7.66523 12.2585 7.84516 12.6768 7.87661H12.8098C13.0608 7.87735 13.3088 7.82291 13.5357 7.71724V7.79036C13.5012 8.24285 13.6501 8.69036 13.9497 9.03456C14.2494 9.37876 14.6753 9.59149 15.1339 9.62599H15.2669H15.2783C15.1402 9.86538 15.0627 10.1341 15.0523 10.4094C15.042 10.6846 15.0991 10.9583 15.2189 11.2071C15.3386 11.456 15.5174 11.6726 15.7402 11.8387C15.9629 12.0047 16.223 12.1153 16.4983 12.161C16.4173 12.2098 16.3404 12.265 16.2683 12.326C16.0398 12.5195 15.8664 12.7685 15.7651 13.0484C15.6638 13.3282 15.6382 13.6293 15.6907 13.9219C15.7433 14.2145 15.8722 14.4885 16.0648 14.717C16.2574 14.9455 16.507 15.1205 16.789 15.2247C16.4681 15.4982 16.2601 15.8783 16.2044 16.2931C16.1487 16.7078 16.2492 17.1283 16.4869 17.4747C16.1845 17.4606 15.8864 17.55 15.6431 17.7279L15.2973 17.9791C15.1207 18.1092 14.9797 18.2806 14.8868 18.4779V18.4872Z" fill="#0D347E"/>
</g>
<defs>
<clipPath id="clip0_127_606">
<rect width="24.3885" height="24" fill="white" transform="translate(0.805664)"/>
</clipPath>
</defs>
</svg>
