<svg width="32" height="31" viewBox="0 0 32 31" fill="none" xmlns="http://www.w3.org/2000/svg">
<g clip-path="url(#clip0_127_641)">
<path d="M5.58058 18.4034L7.44659 12.701C8.18893 10.4324 9.80206 8.55162 11.9311 7.47241C14.0602 6.3932 16.5307 6.20395 18.7993 6.94629C21.0679 7.68864 22.9486 9.30177 24.0278 11.4308C25.1071 13.5599 25.2963 16.0304 24.554 18.299L22.6879 24.0015" stroke="#0D347E" stroke-width="1.5" stroke-linecap="round" stroke-linejoin="round"/>
<path d="M22.3766 24.9518C22.2116 25.456 21.8531 25.8739 21.38 26.1137C20.9069 26.3535 20.3579 26.3956 19.8538 26.2306L18.9033 25.9196C18.3992 25.7547 17.9813 25.3962 17.7414 24.9231C17.5016 24.45 17.4596 23.9009 17.6245 23.3968L18.5575 20.5456C18.7225 20.0415 19.081 19.6235 19.5541 19.3837C20.0272 19.1439 20.5762 19.1018 21.0804 19.2668L23.9316 20.1998L22.3766 24.9518ZM5.26921 19.3538C5.10424 19.8579 5.1463 20.4069 5.38612 20.8801C5.62595 21.3532 6.0439 21.7116 6.54802 21.8766L7.49843 22.1876C8.00256 22.3526 8.55158 22.3105 9.0247 22.0707C9.49782 21.8309 9.85629 21.4129 10.0213 20.9088L10.9543 18.0576C11.1192 17.5534 11.0772 17.0044 10.8373 16.5313C10.5975 16.0582 10.1796 15.6997 9.67545 15.5348L6.82422 14.6017L5.26921 19.3538Z" stroke="#0D347E" stroke-width="1.5" stroke-linecap="round" stroke-linejoin="round"/>
</g>
<defs>
<clipPath id="clip0_127_641">
<rect width="24" height="24" fill="white" transform="translate(8.32715 0.363037) rotate(18.1196)"/>
</clipPath>
</defs>
</svg>
