<svg width="34" height="33" viewBox="0 0 34 33" fill="none" xmlns="http://www.w3.org/2000/svg">
<path d="M17.0303 16.5622L17.0325 16.5667L17.0348 16.5622L17.0325 16.56L17.0303 16.5622Z" fill="#0D347E"/>
<path d="M15.9965 15.354C15.6679 15.6358 15.4704 16.0265 15.4401 16.454C15.4098 16.8818 15.5503 17.2958 15.8358 17.62C16.1216 17.9442 16.5173 18.1398 16.9506 18.1705C16.9902 18.1732 17.0297 18.1746 17.069 18.1746C17.4603 18.1746 17.8341 18.037 18.1326 17.781C18.4611 17.499 18.6591 17.1085 18.6902 16.6813C18.7213 16.2532 18.5813 15.8392 18.2957 15.515C17.707 14.8465 16.6758 14.7741 15.9965 15.354ZM17.8818 17.4963C17.6309 17.712 17.3105 17.8188 16.978 17.7942C16.6462 17.7709 16.3432 17.6212 16.1243 17.3726C15.9057 17.1245 15.798 16.8077 15.8211 16.4805C15.8443 16.1531 15.9957 15.8542 16.247 15.639C16.4825 15.4377 16.7735 15.3391 17.0635 15.3391C17.413 15.3391 17.7607 15.4826 18.0072 15.7624C18.4574 16.2731 18.4012 17.0511 17.8818 17.4963Z" fill="#0D347E"/>
<path d="M23.5359 22.8745L22.3295 19.646C22.8779 18.7351 23.1933 17.672 23.1882 16.5356C23.173 13.1982 20.4178 10.5037 17.0355 10.5187C16.2115 10.5223 15.4257 10.6863 14.7078 10.9812L11.6475 9.35803C11.3545 9.20071 11.0289 9.23065 10.8031 9.4319C10.5665 9.62848 10.4907 9.94212 10.6053 10.2504L11.8033 13.4685C11.2498 14.3821 10.9297 15.448 10.9349 16.5896C10.95 19.9269 13.7053 22.6214 17.0902 22.6065C17.9198 22.6028 18.7091 22.4363 19.43 22.1366L22.4937 23.7671C22.6191 23.8343 22.7504 23.8672 22.8772 23.8672C23.0469 23.8672 23.2088 23.8083 23.3381 23.6932C23.5747 23.4966 23.6505 23.183 23.5359 22.875C23.5359 22.8747 23.5359 22.8747 23.5359 22.8745ZM23.0872 23.409C22.9787 23.5057 22.825 23.5155 22.6755 23.4355L14.8998 19.2975C14.3405 19.0067 14.095 18.5639 13.9855 18.2378L10.964 10.1205C10.9055 9.96274 10.9374 9.81328 11.054 9.71609C11.114 9.66284 11.1874 9.63609 11.2664 9.63609C11.3309 9.63609 11.399 9.65376 11.4662 9.68983L19.1919 13.7873C19.6306 14.0038 19.9525 14.3638 20.1228 14.8301L23.1772 23.0045C23.2357 23.1623 23.2038 23.3118 23.0872 23.409Z" fill="#0D347E"/>
<path d="M17.0328 23.4106C16.9274 23.4106 16.8418 23.4951 16.8418 23.5991V25.3583C16.8418 25.4623 16.9274 25.5468 17.0328 25.5468C17.1383 25.5468 17.2238 25.4623 17.2238 25.3583V23.5991C17.2238 23.4951 17.1383 23.4106 17.0328 23.4106Z" fill="#0D347E"/>
<path d="M17.0328 9.71431C17.1383 9.71431 17.2238 9.62989 17.2238 9.52583V7.76667C17.2238 7.66261 17.1383 7.57819 17.0328 7.57819C16.9274 7.57819 16.8418 7.66261 16.8418 7.76667V9.52583C16.8418 9.62989 16.9274 9.71431 17.0328 9.71431Z" fill="#0D347E"/>
<path d="M17.0631 4.5625C10.3569 4.5625 4.90137 9.94553 4.90137 16.5625C4.90137 23.1795 10.3569 28.5625 17.0631 28.5625C23.7693 28.5625 29.2248 23.1795 29.2248 16.5625C29.2248 9.94553 23.7693 4.5625 17.0631 4.5625ZM17.0631 26.8536C11.312 26.8536 6.63586 22.237 6.63586 16.5625C6.63586 10.8879 11.312 6.2714 17.0631 6.2714C22.8141 6.2714 27.4929 10.8879 27.4929 16.5625C27.4929 22.237 22.8141 26.8536 17.0631 26.8536Z" fill="#0D347E"/>
<path d="M25.947 16.374H24.1642C24.0587 16.374 23.9731 16.4584 23.9731 16.5625C23.9731 16.6666 24.0587 16.751 24.1642 16.751H25.947C26.0525 16.751 26.1381 16.6666 26.1381 16.5625C26.1381 16.4584 26.0525 16.374 25.947 16.374Z" fill="#0D347E"/>
<path d="M9.90133 16.374H8.37315C8.26769 16.374 8.18213 16.4584 8.18213 16.5625C8.18213 16.6666 8.26769 16.751 8.37315 16.751H9.90133C10.0068 16.751 10.0923 16.6666 10.0923 16.5625C10.0923 16.4584 10.0068 16.374 9.90133 16.374Z" fill="#0D347E"/>
</svg>
