<svg width="24" height="25" viewBox="0 0 24 25" fill="none" xmlns="http://www.w3.org/2000/svg">
<g clip-path="url(#clip0_127_611)">
<path d="M18.0841 3.66318L15.9407 4.55404L15.5217 3.55859L14.5707 3.66564C13.6165 3.77265 12.7856 4.13088 11.991 4.78283C11.1962 4.12929 10.3711 3.77138 9.42996 3.6656L8.47867 3.55859L8.06003 4.55404L5.91614 3.66318L1.89453 13.413L4.29593 14.3645V21.4411L11.9905 17.4439L19.685 21.4411V14.371L22.1062 13.4133L18.0841 3.66318ZM5.47973 19.4511V14.834L10.5211 16.8322L5.47973 19.4511ZM11.3987 15.8633L3.46816 12.72L6.54913 5.25061L7.58522 5.68148L4.93879 11.9702L11.3986 14.5514L11.3987 15.8633ZM11.3987 13.2333L6.9405 11.452C7.7021 11.0476 8.6065 10.9952 9.43194 11.3442L11.3986 12.2387L11.3987 13.2333ZM11.3987 10.8961L9.88654 10.2084C8.94978 9.80995 7.93928 9.78255 7.02225 10.0892L9.21529 4.87876C9.33712 4.911 10.2765 4.87991 11.3987 5.86925V10.8961ZM12.5823 5.87003C13.6835 4.90411 14.723 4.89529 14.7854 4.8788L16.9694 10.069C16.1053 9.78288 15.1657 9.82147 14.2554 10.2084L12.5823 10.9202V5.87003ZM12.5823 12.2494L14.7037 11.3469C15.5058 11.0055 16.3429 11.0502 17.0693 11.447L12.5823 13.2346V12.2494ZM18.5012 19.451L13.4611 16.8326L18.5012 14.8391V19.451ZM12.5823 15.8641V14.5517L19.0619 11.9706L16.415 5.68148L17.4513 5.25065L20.5322 12.7196L12.5823 15.8641Z" fill="#0D347E"/>
</g>
<line x1="1.95068" y1="22.8438" x2="21.4532" y2="22.8438" stroke="#0D347E" stroke-width="2"/>
<defs>
<clipPath id="clip0_127_611">
<rect width="20.2116" height="21" fill="white" transform="translate(1.89453 2)"/>
</clipPath>
</defs>
</svg>
