<svg width="24" height="25" viewBox="0 0 24 25" fill="none" xmlns="http://www.w3.org/2000/svg">
<g clip-path="url(#clip0_127_631)">
<path d="M3.51469 8.98531V4.01469H8.48531L12 0.5L15.5147 4.01469H20.4853V8.98531L24 12.5L20.4853 16.0147V20.9853H15.5147L12 24.5L8.48531 20.9853H3.51469V16.0147L0 12.5L3.51469 8.98531ZM4.92141 15.432V19.5786H9.06797L12 22.5106L14.932 19.5786H19.0786V15.432L22.0106 12.5L19.0786 9.56797V5.42141H14.932L12 2.48937L9.06797 5.42141H4.92141V9.56797L1.98938 12.5L4.92141 15.432Z" fill="#0D347E"/>
<path d="M6.32827 10.1506V6.82807H9.65081L12.0002 4.4787L14.3496 6.82807H17.6721V10.1506L20.0215 12.5L17.6721 14.8494V18.1719H14.3496L12.0002 20.5213L9.65081 18.1719H6.32827V14.8494L3.97889 12.5L6.32827 10.1506ZM7.73499 14.2667V16.7652H10.2335L12.0002 18.5319L13.7669 16.7652H16.2654V14.2667L18.0321 12.5L16.2654 10.7333V8.23479H13.7669L12.0002 6.46807L10.2335 8.23479H7.73499V10.7333L5.96827 12.5L7.73499 14.2667Z" fill="#0D347E"/>
</g>
<defs>
<clipPath id="clip0_127_631">
<rect width="24" height="24" fill="white" transform="matrix(-1 0 0 1 24 0.5)"/>
</clipPath>
</defs>
</svg>
